<?xml version="1.0"?>
<svg width="250mm" height="200mm" viewBox="0 0 2500 1500"
     xmlns="http://www.w3.org/2000/svg"
     xmlns:xlink="http://www.w3.org/1999/xlink"
     xmlns:ev="http://www.w3.org/2001/xml-events">
<g font-family="Verdana" font-size="8">
  <text x="1" y="1">ERROR - COULD NOT COMPLETE DRAWING! Examine ERR file for possible explanation. Last error message is:   "Error: No node connection found after the following object: SWHSYS1 HPWH FAN"</text>
  <rect x="200" y="20" width="1" height="1" style="fill:aliceblue; stroke: black;"/>19
  <text x="202" y="14">SWHSYS1 HPWH DXCOIL</text>
  <rect x="200" y="20" width="1" height="1" style="fill:aliceblue; stroke: black;"/>33
  <text x="202" y="14">SWHSYS1 HPWH FAN</text>
  <line x1="201" y1="20" x2="200" y2="20" style="stroke:black;"/>
  <text x="200" y="61">Unused Non-Parent Objects:</text>
  <text x="220" y="81">CORE_BOTTOM</text>
  <text x="220" y="101">PERIMETER_BOT_ZN_1</text>
  <text x="220" y="121">PERIMETER_BOT_ZN_2</text>
  <text x="220" y="141">PERIMETER_BOT_ZN_3</text>
  <text x="220" y="161">PERIMETER_BOT_ZN_4</text>
  <text x="220" y="181">CORE_MID</text>
  <text x="220" y="201">PERIMETER_MID_ZN_1</text>
  <text x="220" y="221">PERIMETER_MID_ZN_2</text>
  <text x="220" y="241">PERIMETER_MID_ZN_3</text>
  <text x="220" y="261">PERIMETER_MID_ZN_4</text>
  <text x="220" y="281">CORE_TOP</text>
  <text x="220" y="301">PERIMETER_TOP_ZN_1</text>
  <text x="220" y="321">PERIMETER_TOP_ZN_2</text>
  <text x="220" y="341">PERIMETER_TOP_ZN_3</text>
  <text x="220" y="361">PERIMETER_TOP_ZN_4</text>
  <text x="220" y="381">PACU_VAV_BOT COOLING COIL</text>
  <text x="220" y="401">PACU_VAV_MID COOLING COIL</text>
  <text x="220" y="421">PACU_VAV_TOP COOLING COIL</text>
  <text x="220" y="441">OutdoorAir:NodeList</text>
  <text x="220" y="461">OutdoorAir:NodeList</text>
  <text x="220" y="481">OutdoorAir:NodeList</text>
  <text x="220" y="501">OutdoorAir:Node</text>
  <text x="220" y="521">OutdoorAir:Node</text>
  <text x="220" y="541">OutdoorAir:Node</text>
  <text x="220" y="561">OutdoorAir:Node</text>
  <text x="220" y="581">OutdoorAir:Node</text>
  <text x="220" y="601">OutdoorAir:Node</text>
  <text x="220" y="621">PACU_VAV_BOT FAN</text>
  <text x="220" y="641">PACU_VAV_MID FAN</text>
  <text x="220" y="661">PACU_VAV_TOP FAN</text>
  <text x="220" y="681">SWHSYS1 HPWH TANK</text>
  <text x="220" y="701">SWHSYS1 HPWH TANK</text>
  <text x="220" y="721">SWHSYS1 LOOP SETPOINT MANAGER</text>
  <text x="220" y="741">PACU_VAV_BOT_COOLC SAT MANAGER</text>
  <text x="220" y="761">PACU_VAV_BOT_HEATC MIXEDAIR MANAGER</text>
  <text x="220" y="781">PACU_VAV_BOT_OAMIXED AIR TEMP MANAGER</text>
  <text x="220" y="801">PACU_VAV_MID_COOLC SAT MANAGER</text>
  <text x="220" y="821">PACU_VAV_MID_HEATC MIXEDAIR MANAGER</text>
  <text x="220" y="841">PACU_VAV_MID_OAMIXED AIR TEMP MANAGER</text>
  <text x="220" y="861">PACU_VAV_TOP_COOLC SAT MANAGER</text>
  <text x="220" y="881">PACU_VAV_TOP_HEATC MIXEDAIR MANAGER</text>
  <text x="220" y="901">PACU_VAV_TOP_OAMIXED AIR TEMP MANAGER</text>
  <text x="220" y="921">PACU_VAV_BOT SUPPLY AIR TEMPERATURE MANAGER</text>
  <text x="220" y="941">PACU_VAV_MID SUPPLY AIR TEMPERATURE MANAGER</text>
  <text x="220" y="961">PACU_VAV_TOP SUPPLY AIR TEMPERATURE MANAGER</text>
  <text x="220" y="981">SWHSYS1 SUPPLY EQUIPMENT BYPASS PIPE</text>
  <text x="220" y="1001">SWHSYS1 SUPPLY OUTLET PIPE</text>
  <text x="220" y="1021">SWHSYS1 DEMAND INLET PIPE</text>
  <text x="220" y="1041">SWHSYS1 DEMAND BYPASS PIPE</text>
  <text x="220" y="1061">SWHSYS1 DEMAND OUTLET PIPE</text>
  <text x="220" y="1081">CORE_BOTTOM SUB CAT</text>
  <text x="220" y="1101">CORE_MID SUB CAT</text>
  <text x="220" y="1121">CORE_TOP SUB CAT</text>
  <text x="220" y="1141">PERIMETER_TOP_ZN_3 SUB CAT</text>
  <text x="220" y="1161">PERIMETER_TOP_ZN_2 SUB CAT</text>
  <text x="220" y="1181">PERIMETER_TOP_ZN_1 SUB CAT</text>
  <text x="220" y="1201">PERIMETER_TOP_ZN_4 SUB CAT</text>
  <text x="220" y="1221">PERIMETER_BOT_ZN_3 SUB CAT</text>
  <text x="220" y="1241">PERIMETER_BOT_ZN_2 SUB CAT</text>
  <text x="220" y="1261">PERIMETER_BOT_ZN_1 SUB CAT</text>
  <text x="220" y="1281">PERIMETER_BOT_ZN_4 SUB CAT</text>
  <text x="220" y="1301">PERIMETER_MID_ZN_3 SUB CAT</text>
  <text x="220" y="1321">PERIMETER_MID_ZN_2 SUB CAT</text>
  <text x="220" y="1341">PERIMETER_MID_ZN_1 SUB CAT</text>
  <text x="220" y="1361">PERIMETER_MID_ZN_4 SUB CAT</text>
  <text x="220" y="1381">SWHSYS1 DEMAND SPLITTER</text>
  <text x="220" y="1401">SWHSYS1 DEMAND MIXER</text>
  <text x="220" y="1421">SWHSYS1 SUPPLY SPLITTER</text>
  <text x="220" y="1441">SWHSYS1 SUPPLY MIXER</text>
  <text x="220" y="1461">PACU_VAV_BOT SUPPLY AIR SPLITTER</text>
  <text x="220" y="1481">PACU_VAV_MID SUPPLY AIR SPLITTER</text>
  <text x="220" y="1501">PACU_VAV_TOP SUPPLY AIR SPLITTER</text>
  <text x="220" y="1521">CORE_BOTTOM VAV BOX COMPONENT</text>
  <text x="220" y="1541">PERIMETER_BOT_ZN_1 VAV BOX COMPONENT</text>
  <text x="220" y="1561">PERIMETER_BOT_ZN_2 VAV BOX COMPONENT</text>
  <text x="220" y="1581">PERIMETER_BOT_ZN_3 VAV BOX COMPONENT</text>
  <text x="220" y="1601">PERIMETER_BOT_ZN_4 VAV BOX COMPONENT</text>
  <text x="220" y="1621">CORE_MID VAV BOX COMPONENT</text>
  <text x="220" y="1641">PERIMETER_MID_ZN_1 VAV BOX COMPONENT</text>
  <text x="220" y="1661">PERIMETER_MID_ZN_2 VAV BOX COMPONENT</text>
  <text x="220" y="1681">PERIMETER_MID_ZN_3 VAV BOX COMPONENT</text>
  <text x="220" y="1701">PERIMETER_MID_ZN_4 VAV BOX COMPONENT</text>
  <text x="220" y="1721">CORE_TOP VAV BOX COMPONENT</text>
  <text x="220" y="1741">PERIMETER_TOP_ZN_1 VAV BOX COMPONENT</text>
  <text x="220" y="1761">PERIMETER_TOP_ZN_2 VAV BOX COMPONENT</text>
  <text x="220" y="1781">PERIMETER_TOP_ZN_3 VAV BOX COMPONENT</text>
  <text x="220" y="1801">PERIMETER_TOP_ZN_4 VAV BOX COMPONENT</text>
  <text x="220" y="1821">CORE_BOTTOM VAV BOX REHEAT COIL</text>
  <text x="220" y="1841">PERIMETER_BOT_ZN_1 VAV BOX REHEAT COIL</text>
  <text x="220" y="1861">PERIMETER_BOT_ZN_2 VAV BOX REHEAT COIL</text>
  <text x="220" y="1881">PERIMETER_BOT_ZN_3 VAV BOX REHEAT COIL</text>
  <text x="220" y="1901">PERIMETER_BOT_ZN_4 VAV BOX REHEAT COIL</text>
  <text x="220" y="1921">CORE_MID VAV BOX REHEAT COIL</text>
  <text x="220" y="1941">PERIMETER_MID_ZN_1 VAV BOX REHEAT COIL</text>
  <text x="220" y="1961">PERIMETER_MID_ZN_2 VAV BOX REHEAT COIL</text>
  <text x="220" y="1981">PERIMETER_MID_ZN_3 VAV BOX REHEAT COIL</text>
  <text x="220" y="2001">PERIMETER_MID_ZN_4 VAV BOX REHEAT COIL</text>
  <text x="220" y="2021">CORE_TOP VAV BOX REHEAT COIL</text>
  <text x="220" y="2041">PERIMETER_TOP_ZN_1 VAV BOX REHEAT COIL</text>
  <text x="220" y="2061">PERIMETER_TOP_ZN_2 VAV BOX REHEAT COIL</text>
  <text x="220" y="2081">PERIMETER_TOP_ZN_3 VAV BOX REHEAT COIL</text>
  <text x="220" y="2101">PERIMETER_TOP_ZN_4 VAV BOX REHEAT COIL</text>
  <text x="220" y="2121">PACU_VAV_BOT HEATING COIL</text>
  <text x="220" y="2141">PACU_VAV_MID HEATING COIL</text>
  <text x="220" y="2161">PACU_VAV_TOP HEATING COIL</text>
  <text x="220" y="2181">FIRSTFLOOR_PLENUM_RETURN</text>
  <text x="220" y="2201">MIDFLOOR_PLENUM_RETURN</text>
  <text x="220" y="2221">TOPFLOOR_PLENUM_RETURN</text>
  <text x="220" y="2241">PACU_VAV_BOT RETURN AIR MIXER</text>
  <text x="220" y="2261">PACU_VAV_MID RETURN AIR MIXER</text>
  <text x="220" y="2281">PACU_VAV_TOP RETURN AIR MIXER</text>
  <text x="220" y="2301">PACU_VAV_BOT_OAMIXING BOX</text>
  <text x="220" y="2321">PACU_VAV_MID_OAMIXING BOX</text>
  <text x="220" y="2341">PACU_VAV_TOP_OAMIXING BOX</text>
  <text x="220" y="2361">PACU_VAV_BOT_OA_CONTROLLER</text>
  <text x="220" y="2381">PACU_VAV_MID_OA_CONTROLLER</text>
  <text x="220" y="2401">PACU_VAV_TOP_OA_CONTROLLER</text>
  <text x="220" y="2421">SWHSYS1 PUMP</text>
  <text x="220" y="2441">PERIMETER_BOT_ZN_1</text>
  <text x="220" y="2461">PERIMETER_BOT_ZN_2</text>
  <text x="220" y="2481">PERIMETER_BOT_ZN_3</text>
  <text x="220" y="2501">PERIMETER_BOT_ZN_4</text>
  <text x="220" y="2521">CORE_MID</text>
  <text x="220" y="2541">PERIMETER_MID_ZN_1</text>
  <text x="220" y="2561">PERIMETER_MID_ZN_2</text>
  <text x="220" y="2581">PERIMETER_MID_ZN_3</text>
  <text x="220" y="2601">PERIMETER_MID_ZN_4</text>
  <text x="220" y="2621">CORE_TOP</text>
  <text x="220" y="2641">PERIMETER_TOP_ZN_1</text>
  <text x="220" y="2661">PERIMETER_TOP_ZN_2</text>
  <text x="220" y="2681">PERIMETER_TOP_ZN_3</text>
  <text x="220" y="2701">PERIMETER_TOP_ZN_4</text>
  <text x="200" y="2741">
The following are not supported: objects related to controls or ZoneHVAC:IdealLoadsAirSystem</text>
</g>
</svg>
